<mxfile host="app.diagrams.net" modified="2022-04-14T07:28:27.718Z" agent="5.0 (Macintosh; Intel Mac OS X 10_15_7) AppleWebKit/537.36 (KHTML, like Gecko) Chrome/100.0.4896.88 Safari/537.36" etag="_VFtczhOUkHFWq3ebwsi" version="17.4.0" type="github">
  <diagram id="ktRO90Tz5rX7UoipWm3o" name="Page-1">
    <mxGraphModel dx="1426" dy="877" grid="1" gridSize="10" guides="1" tooltips="1" connect="1" arrows="1" fold="1" page="1" pageScale="1" pageWidth="827" pageHeight="1169" math="0" shadow="0">
      <root>
        <mxCell id="0" />
        <mxCell id="1" parent="0" />
        <mxCell id="tTCG_6ygQPpatBojDWRA-4" value="" style="edgeStyle=orthogonalEdgeStyle;rounded=0;orthogonalLoop=1;jettySize=auto;html=1;" edge="1" parent="1" source="tTCG_6ygQPpatBojDWRA-1" target="tTCG_6ygQPpatBojDWRA-3">
          <mxGeometry relative="1" as="geometry" />
        </mxCell>
        <mxCell id="tTCG_6ygQPpatBojDWRA-9" style="edgeStyle=orthogonalEdgeStyle;rounded=0;orthogonalLoop=1;jettySize=auto;html=1;exitX=0.5;exitY=0;exitDx=0;exitDy=0;entryX=0.5;entryY=1;entryDx=0;entryDy=0;" edge="1" parent="1" source="tTCG_6ygQPpatBojDWRA-1" target="tTCG_6ygQPpatBojDWRA-2">
          <mxGeometry relative="1" as="geometry" />
        </mxCell>
        <mxCell id="tTCG_6ygQPpatBojDWRA-1" value="运行cloud driver&lt;br&gt;异步写回s3&lt;br&gt;直接测试" style="rounded=0;whiteSpace=wrap;html=1;fillColor=#f5f5f5;fontColor=#333333;strokeColor=#666666;" vertex="1" parent="1">
          <mxGeometry x="90" y="280" width="310" height="160" as="geometry" />
        </mxCell>
        <mxCell id="tTCG_6ygQPpatBojDWRA-6" value="" style="edgeStyle=orthogonalEdgeStyle;rounded=0;orthogonalLoop=1;jettySize=auto;html=1;" edge="1" parent="1" source="tTCG_6ygQPpatBojDWRA-2" target="tTCG_6ygQPpatBojDWRA-5">
          <mxGeometry relative="1" as="geometry" />
        </mxCell>
        <mxCell id="tTCG_6ygQPpatBojDWRA-2" value="01" style="rounded=0;whiteSpace=wrap;html=1;fillColor=#dae8fc;strokeColor=#6c8ebf;" vertex="1" parent="1">
          <mxGeometry x="185" y="140" width="120" height="60" as="geometry" />
        </mxCell>
        <mxCell id="tTCG_6ygQPpatBojDWRA-10" style="edgeStyle=orthogonalEdgeStyle;rounded=0;orthogonalLoop=1;jettySize=auto;html=1;exitX=0.5;exitY=0;exitDx=0;exitDy=0;entryX=0.5;entryY=1;entryDx=0;entryDy=0;" edge="1" parent="1" source="tTCG_6ygQPpatBojDWRA-3" target="tTCG_6ygQPpatBojDWRA-5">
          <mxGeometry relative="1" as="geometry" />
        </mxCell>
        <mxCell id="tTCG_6ygQPpatBojDWRA-3" value="删除seaweed filer中的文件&lt;br&gt;同步元数据" style="rounded=0;whiteSpace=wrap;html=1;fillColor=#f5f5f5;fontColor=#333333;strokeColor=#666666;" vertex="1" parent="1">
          <mxGeometry x="480" y="280" width="310" height="160" as="geometry" />
        </mxCell>
        <mxCell id="tTCG_6ygQPpatBojDWRA-5" value="02" style="rounded=0;whiteSpace=wrap;html=1;fillColor=#dae8fc;strokeColor=#6c8ebf;" vertex="1" parent="1">
          <mxGeometry x="575" y="140" width="120" height="60" as="geometry" />
        </mxCell>
      </root>
    </mxGraphModel>
  </diagram>
</mxfile>
